PathFileType	4	(X/Y/Z)	/Users/itak/Documents/Research/Walk-IL/dataset/trc/00569_00009.trc
DataRate	CameraRate	NumFrames	NumMarkers	Units	OrigDataRate	OrigDataStartFrame	OrigNumFrames
100.000000	100.000000	4	53	mm	100.000000	420	561
Frame#	Time	RPSI			LPSI			L3			STRN			T10			C7			CLAV			RBAK			LBAK			LSHO			LUPA			LAEL			LAOL			LWTS			LWPS			LFRA			LIFD			LHPS			LHTS			RSHO			RUPA			RAEL			RAOL			RWTS			RWPS			RFRA			RIFD			RHTS			RHPS			RBHD			LFHD			RFHD			LBHD			LHIP			RHIP			RASI			LASI			LKNE			LTHI			LANK			LTIP			LTOE			LMT1			LMT5			LHEE			RKNE			RTHI			RANK			RTIP			RTOE			RMT1			RMT5			RHEE			
		X1	Y1	Z1	X2	Y2	Z2	X3	Y3	Z3	X4	Y4	Z4	X5	Y5	Z5	X6	Y6	Z6	X7	Y7	Z7	X8	Y8	Z8	X9	Y9	Z9	X10	Y10	Z10	X11	Y11	Z11	X12	Y12	Z12	X13	Y13	Z13	X14	Y14	Z14	X15	Y15	Z15	X16	Y16	Z16	X17	Y17	Z17	X18	Y18	Z18	X19	Y19	Z19	X20	Y20	Z20	X21	Y21	Z21	X22	Y22	Z22	X23	Y23	Z23	X24	Y24	Z24	X25	Y25	Z25	X26	Y26	Z26	X27	Y27	Z27	X28	Y28	Z28	X29	Y29	Z29	X30	Y30	Z30	X31	Y31	Z31	X32	Y32	Z32	X33	Y33	Z33	X34	Y34	Z34	X35	Y35	Z35	X36	Y36	Z36	X37	Y37	Z37	X38	Y38	Z38	X39	Y39	Z39	X40	Y40	Z40	X41	Y41	Z41	X42	Y42	Z42	X43	Y43	Z43	X44	Y44	Z44	X45	Y45	Z45	X46	Y46	Z46	X47	Y47	Z47	X48	Y48	Z48	X49	Y49	Z49	X50	Y50	Z50	X51	Y51	Z51	X52	Y52	Z52	X53	Y53	Z53	

421	4.2	381.8052062988281	1009.451354980469	848.314208984375	516.0623779296875	1016.420043945312	841.0036010742188	452.5806274414062	1107.587646484375	849.9735107421875	476.7983093261719	1296.919555664062	1079.93994140625	455.1970520019531	1233.135986328125	840.7711181640625	443.1553344726562	1508.39501953125	889.190185546875	473.6114807128906	1408.176147460938	1060.859375	352.4582214355469	1381.277221679688	827.7134399414062	531.2930297851562	1456.239624023438	844.6443481445312	623.6608276367188	1482.851440429688	932.401611328125	705.3081665039062	1358.440673828125	918.6244506835938	741.75146484375	1142.4853515625	952.3971557617188	681.0844116210938	1120.779663085938	874.1884155273438	717.4617309570312	924.5466918945312	1093.096435546875	782.077392578125	892.6708374023438	1043.716064453125	755.3880615234375	1062.530517578125	988.0989990234375	722.9716186523438	757.9178466796875	1120.58544921875	777.9826049804688	836.0421142578125	1064.935791015625	743.7304077148438	852.88671875	1121.938354492188	295.5596618652344	1468.362548828125	963.2976684570312	226.6689300537109	1402.378784179688	952.70703125	184.0610961914062	1113.574584960938	954.6153564453125	208.1149139404297	1093.5556640625	899.0055541992188	232.0857086181641	907.966796875	1105.703125	164.2639007568359	881.0570068359375	1064.42236328125	175.6084289550781	1058.212036132812	968.4754638671875	235.9710845947266	736.5230712890625	1130.104614257812	220.3480377197266	819.2523193359375	1142.693481445312	170.5201568603516	809.4508056640625	1088.697998046875	383.6910705566406	1691.090209960938	994.09765625	535.0121459960938	1695.749877929688	1136.5712890625	391.2049560546875	1692.537963867188	1134.680786132812	549.6642456054688	1692.905395507812	1003.481384277344	657.4752197265625	942.8697509765625	963.1397094726562	268.6678161621094	938.3552856445312	981.2861328125	332.0124816894531	974.5457763671875	1062.161865234375	607.6575317382812	969.8175048828125	1042.851196289062	596.013671875	511.7583618164062	1084.002075195312	631.397705078125	672.2406005859375	1045.141967773438	581.883056640625	32.95647811889648	1043.94091796875	594.3257446289062	257.2593383789062	1050.560302734375	517.40576171875	45.85317993164062	1255.1552734375	484.622802734375	50.92659759521484	1181.173217773438	594.3253784179688	37.63097763061523	1166.683349609375	528.0194702148438	38.1997184753418	975.1417236328125	315.2467041015625	501.064453125	1057.379272460938	281.9870910644531	787.581787109375	1006.881469726562	306.7074279785156	139.0819549560547	740.5484619140625	319.6671142578125	370.84716796875	989.6148681640625	356.5587768554688	54.27703857421875	929.8630981445312	395.6540832519531	70.42093658447266	867.6185913085938	292.0751037597656	83.62596130371094	856.6438598632812	355.6358947753906	156.1760711669922	685.4091186523438	
422	4.21	382.4472961425781	1010.229187011719	852.518798828125	516.7325439453125	1017.140747070312	845.1649780273438	453.5224914550781	1108.3984375	854.152587890625	477.8426208496094	1297.346923828125	1084.822387695312	456.3297424316406	1234.012329101562	845.2976684570312	444.7122192382812	1509.183837890625	894.3981323242188	474.7407836914062	1408.683837890625	1065.979858398438	353.9844055175781	1382.267456054688	832.5560302734375	532.970703125	1457.029541015625	849.9774169921875	625.0611572265625	1483.535034179688	938.0314331054688	706.9425659179688	1359.267700195312	924.85498046875	743.5762939453125	1143.573120117188	959.8754272460938	683.7411499023438	1121.304565429688	881.128173828125	718.1513061523438	926.8285522460938	1102.128295898438	783.26611328125	894.609619140625	1053.571899414062	756.9671020507812	1063.95361328125	996.3280639648438	723.485107421875	760.6422119140625	1131.214111328125	778.987060546875	838.1660766601562	1075.312866210938	744.1298217773438	855.4506225585938	1131.798095703125	296.943359375	1469.179931640625	968.1729125976562	228.0213928222656	1403.301391601562	957.3944091796875	185.0159606933594	1114.57861328125	959.088623046875	209.0815277099609	1094.366088867188	903.5714111328125	233.1771545410156	910.2724609375	1111.613403320312	165.6019134521484	882.7803344726562	1070.36767578125	176.6287078857422	1059.245971679688	973.203369140625	237.3182525634766	739.1939086914062	1137.958740234375	221.4326629638672	822.0062866210938	1149.582397460938	171.8302612304688	811.4701538085938	1095.484497070312	385.153564453125	1691.726928710938	999.572021484375	536.2730102539062	1696.015747070312	1142.267211914062	392.4620056152344	1692.94384765625	1140.213256835938	551.1131591796875	1693.393188476562	1009.186279296875	658.4081420898438	943.26171875	966.7586059570312	269.3832092285156	939.2642211914062	985.6778564453125	333.10791015625	975.392822265625	1066.431396484375	608.6836547851562	970.1455078125	1046.735717773438	596.5889282226562	511.4620361328125	1084.943359375	631.9078979492188	672.1771240234375	1047.302856445312	581.7865600585938	33.00415802001953	1043.939208984375	594.4526977539062	257.1654052734375	1050.85986328125	517.4200439453125	45.79732513427734	1255.207397460938	484.6285400390625	50.89056015014648	1181.22998046875	594.3513793945312	37.64082336425781	1166.669921875	527.8760986328125	38.2431526184082	975.1585083007812	316.2099609375	502.474853515625	1064.529418945312	282.9530334472656	788.4523315429688	1011.568176269531	307.6457824707031	131.5852508544922	757.7855834960938	320.5648803710938	370.7142333984375	999.7569580078125	357.494384765625	54.85433197021484	950.7217407226562	396.5784912109375	68.52082824707031	887.9137573242188	293.2479553222656	80.73611450195312	875.9313354492188	356.7662048339844	146.6737976074219	702.0079956054688	
423	4.22	383.1138000488281	1010.952087402344	856.6097412109375	517.4275512695312	1017.809265136719	849.244384765625	454.4455261230469	1109.161499023438	858.2296142578125	478.8286437988281	1297.742919921875	1089.582153320312	457.3946533203125	1234.843627929688	849.7003173828125	446.156982421875	1509.925170898438	899.4728393554688	475.794677734375	1409.15283203125	1070.969604492188	355.3933410644531	1383.197143554688	837.2880249023438	534.5255126953125	1457.777465820312	855.15234375	626.3685302734375	1484.164794921875	943.4706420898438	708.4510498046875	1360.01708984375	930.8709106445312	745.2685546875	1144.594970703125	967.1310424804688	686.2105712890625	1121.771728515625	887.907470703125	718.7861328125	929.0222778320312	1110.88623046875	784.3516235351562	896.4805297851562	1063.10546875	758.4251098632812	1065.304077148438	1004.301330566406	724.0145874023438	763.2755126953125	1141.575805664062	779.903564453125	840.2220458984375	1085.375610351562	744.5108032226562	857.9364624023438	1141.363037109375	298.2313537597656	1469.939819335938	972.9546508789062	229.2712554931641	1404.166137695312	962.0121459960938	185.8807983398438	1115.514526367188	963.5619506835938	209.9342346191406	1095.118408203125	908.1174926757812	234.2774810791016	912.4490356445312	1117.414794921875	166.8945465087891	884.4081420898438	1076.257934570312	177.5645904541016	1060.212646484375	977.9183959960938	238.7181854248047	741.7255859375	1145.542724609375	222.5784606933594	824.6056518554688	1156.28076171875	173.1449737548828	813.3718872070312	1102.135375976562	386.5332946777344	1692.333862304688	1004.902038574219	537.4686279296875	1696.251953125	1147.792846679688	393.6594543457031	1693.3193359375	1145.606567382812	552.470947265625	1693.841918945312	1014.728271484375	659.3372802734375	943.6505737304688	970.345947265625	270.0666809082031	940.0933227539062	989.8972778320312	334.0908508300781	976.1854858398438	1070.59375	609.5966796875	970.4448852539062	1050.593383789062	597.1331176757812	511.1561889648438	1085.846435546875	632.352783203125	672.111572265625	1049.470947265625	581.6939697265625	33.04957962036133	1043.937866210938	594.556884765625	257.0674743652344	1051.142822265625	517.4331665039062	45.74997711181641	1255.253540039062	484.6346740722656	50.85624313354492	1181.284057617188	594.3751220703125	37.65067291259766	1166.65673828125	527.7393188476562	38.2820930480957	975.1715087890625	317.0499267578125	503.8231201171875	1071.2763671875	283.8064880371094	789.2684936523438	1016.147705078125	308.4860534667969	124.1375274658203	775.0844116210938	321.3458251953125	370.5409240722656	1009.606750488281	358.1888732910156	55.47289657592773	971.3569946289062	397.3232116699219	66.67097473144531	908.09375	294.231689453125	77.93827819824219	895.0794067382812	357.8759155273438	137.1199798583984	718.7843627929688	
424	4.23	383.8083801269531	1011.632507324219	860.593017578125	518.1491088867188	1018.433349609375	853.2498779296875	455.3502807617188	1109.886352539062	862.21923828125	479.7554931640625	1298.117919921875	1094.220336914062	458.3988342285156	1235.635498046875	853.9882202148438	447.49072265625	1510.625122070312	904.412841796875	476.77294921875	1409.592651367188	1075.826416015625	356.6871643066406	1384.072998046875	841.9080200195312	535.9608764648438	1458.491333007812	860.1672973632812	627.5823364257812	1484.749877929688	948.7242431640625	709.8336181640625	1360.69921875	936.6712646484375	746.81884765625	1145.556518554688	974.1492919921875	688.480712890625	1122.192138671875	894.5093383789062	719.3662719726562	931.132080078125	1119.350830078125	785.3303833007812	898.2838745117188	1072.296264648438	759.754638671875	1066.585693359375	1012.00146484375	724.5596923828125	765.8242797851562	1151.646118164062	780.7333984375	842.21142578125	1095.101806640625	744.8679809570312	860.3468627929688	1150.612060546875	299.4244079589844	1470.651489257812	977.6373901367188	230.4162902832031	1404.981079101562	966.5517578125	186.66552734375	1116.388916015625	968.0413208007812	210.6804656982422	1095.819580078125	912.650390625	235.3847351074219	914.48486328125	1123.099975585938	168.1363525390625	885.9383544921875	1082.082763671875	178.42138671875	1061.118530273438	982.6256103515625	240.1534423828125	744.0966796875	1152.829833984375	223.7782745361328	827.0321655273438	1162.77197265625	174.4577484130859	815.1510620117188	1108.631958007812	387.8292846679688	1692.919677734375	1010.087585449219	538.596923828125	1696.464599609375	1153.148803710938	394.7957763671875	1693.670288085938	1150.857666015625	553.7366333007812	1694.258666992188	1020.10791015625	660.2462768554688	944.0308227539062	973.9348754882812	270.7205505371094	940.8609008789062	993.9562377929688	334.9548950195312	976.93701171875	1074.650268554688	610.3958740234375	970.7196044921875	1054.437377929688	597.6341552734375	510.8447570800781	1086.743408203125	632.7266235351562	672.043212890625	1051.676879882812	581.6055908203125	33.09278106689453	1043.938110351562	594.6380004882812	256.96728515625	1051.426147460938	517.4448852539062	45.70985794067383	1255.294799804688	484.6396179199219	50.82213592529297	1181.33544921875	594.3955078125	37.66051864624023	1166.644897460938	527.6115112304688	38.31703567504883	975.1801147460938	317.7791137695312	505.1171875	1077.635375976562	284.541015625	790.0435180664062	1020.621398925781	309.2512817382812	116.8805236816406	792.35791015625	322.0154724121094	370.3660583496094	1019.151733398438	358.5666198730469	56.179443359375	991.6646728515625	397.8379211425781	64.92041778564453	928.0616455078125	294.974853515625	75.35423278808594	913.9883422851562	358.968505859375	127.6687240600586	735.66162109375	
